<?xml version="1.0" encoding="UTF-8" standalone="no"?>
<!DOCTYPE svg PUBLIC "-//W3C//DTD SVG 1.1//EN"
 "http://www.w3.org/Graphics/SVG/1.1/DTD/svg11.dtd">
<!-- Generated by graphviz version 2.47.3 (20210619.1520)
 -->
<!-- Title: dependencies Pages: 1 -->
<svg width="1044pt" height="247pt"
 viewBox="0.00 0.00 1044.00 246.80" xmlns="http://www.w3.org/2000/svg" xmlns:xlink="http://www.w3.org/1999/xlink">
<g id="graph0" class="graph" transform="scale(1 1) rotate(0) translate(4 242.8)">
<title>dependencies</title>
<polygon fill="white" stroke="transparent" points="-4,4 -4,-242.8 1040,-242.8 1040,4 -4,4"/>
<text text-anchor="middle" x="518" y="-8.2" font-family="sans-serif" font-size="14.00">dependencies</text>
<g id="clust1" class="cluster">
<title>cluster_AppModule</title>
<polygon fill="none" stroke="black" stroke-dasharray="1,5" points="8,-32.8 8,-230.8 1028,-230.8 1028,-32.8 8,-32.8"/>
</g>
<g id="clust2" class="cluster">
<title>cluster_AppModule_declarations</title>
<polygon fill="none" stroke="black" points="168,-40.8 168,-92.8 1020,-92.8 1020,-40.8 168,-40.8"/>
</g>
<g id="clust9" class="cluster">
<title>cluster_AppModule_imports</title>
<polygon fill="none" stroke="black" points="16,-40.8 16,-92.8 160,-92.8 160,-40.8 16,-40.8"/>
</g>
<g id="clust11" class="cluster">
<title>cluster_AppModule_bootstrap</title>
<polygon fill="none" stroke="black" points="463,-170.8 463,-222.8 587,-222.8 587,-170.8 463,-170.8"/>
</g>
<!-- AppComponent -->
<g id="node1" class="node">
<title>AppComponent</title>
<polygon fill="#ffffb3" stroke="black" points="1011.94,-84.8 906.06,-84.8 906.06,-48.8 1011.94,-48.8 1011.94,-84.8"/>
<text text-anchor="middle" x="959" y="-62.6" font-family="Times,serif" font-size="14.00">AppComponent</text>
</g>
<!-- AppModule -->
<g id="node7" class="node">
<title>AppModule</title>
<polygon fill="#8dd3c7" stroke="black" points="566.66,-149.8 563.66,-153.8 542.66,-153.8 539.66,-149.8 483.34,-149.8 483.34,-113.8 566.66,-113.8 566.66,-149.8"/>
<text text-anchor="middle" x="525" y="-127.6" font-family="Times,serif" font-size="14.00">AppModule</text>
</g>
<!-- AppComponent&#45;&gt;AppModule -->
<g id="edge1" class="edge">
<title>AppComponent&#45;&gt;AppModule</title>
<path fill="none" stroke="black" d="M959,-85.09C959,-107.01 959,-140.8 959,-140.8 959,-140.8 577.01,-140.8 577.01,-140.8"/>
<polygon fill="black" stroke="black" points="577.01,-137.3 567.01,-140.8 577.01,-144.3 577.01,-137.3"/>
</g>
<!-- DashboardComponent -->
<g id="node2" class="node">
<title>DashboardComponent</title>
<polygon fill="#ffffb3" stroke="black" points="887.97,-84.8 746.03,-84.8 746.03,-48.8 887.97,-48.8 887.97,-84.8"/>
<text text-anchor="middle" x="817" y="-62.6" font-family="Times,serif" font-size="14.00">DashboardComponent</text>
</g>
<!-- DashboardComponent&#45;&gt;AppModule -->
<g id="edge2" class="edge">
<title>DashboardComponent&#45;&gt;AppModule</title>
<path fill="none" stroke="black" d="M817,-84.91C817,-104.14 817,-131.8 817,-131.8 817,-131.8 576.84,-131.8 576.84,-131.8"/>
<polygon fill="black" stroke="black" points="576.84,-128.3 566.84,-131.8 576.84,-135.3 576.84,-128.3"/>
</g>
<!-- HeaderComponent -->
<g id="node3" class="node">
<title>HeaderComponent</title>
<polygon fill="#ffffb3" stroke="black" points="727.74,-84.8 606.26,-84.8 606.26,-48.8 727.74,-48.8 727.74,-84.8"/>
<text text-anchor="middle" x="667" y="-62.6" font-family="Times,serif" font-size="14.00">HeaderComponent</text>
</g>
<!-- HeaderComponent&#45;&gt;AppModule -->
<g id="edge3" class="edge">
<title>HeaderComponent&#45;&gt;AppModule</title>
<path fill="none" stroke="black" d="M667,-84.83C667,-101.2 667,-122.8 667,-122.8 667,-122.8 576.84,-122.8 576.84,-122.8"/>
<polygon fill="black" stroke="black" points="576.84,-119.3 566.84,-122.8 576.84,-126.3 576.84,-119.3"/>
</g>
<!-- LessonsComponent -->
<g id="node4" class="node">
<title>LessonsComponent</title>
<polygon fill="#ffffb3" stroke="black" points="588.43,-84.8 461.57,-84.8 461.57,-48.8 588.43,-48.8 588.43,-84.8"/>
<text text-anchor="middle" x="525" y="-62.6" font-family="Times,serif" font-size="14.00">LessonsComponent</text>
</g>
<!-- LessonsComponent&#45;&gt;AppModule -->
<g id="edge4" class="edge">
<title>LessonsComponent&#45;&gt;AppModule</title>
<path fill="none" stroke="black" d="M525,-84.91C525,-84.91 525,-103.79 525,-103.79"/>
<polygon fill="black" stroke="black" points="521.5,-103.79 525,-113.79 528.5,-103.79 521.5,-103.79"/>
</g>
<!-- LoginComponent -->
<g id="node5" class="node">
<title>LoginComponent</title>
<polygon fill="#ffffb3" stroke="black" points="443.28,-84.8 328.72,-84.8 328.72,-48.8 443.28,-48.8 443.28,-84.8"/>
<text text-anchor="middle" x="386" y="-62.6" font-family="Times,serif" font-size="14.00">LoginComponent</text>
</g>
<!-- LoginComponent&#45;&gt;AppModule -->
<g id="edge5" class="edge">
<title>LoginComponent&#45;&gt;AppModule</title>
<path fill="none" stroke="black" d="M386,-84.83C386,-101.2 386,-122.8 386,-122.8 386,-122.8 473.3,-122.8 473.3,-122.8"/>
<polygon fill="black" stroke="black" points="473.3,-126.3 483.3,-122.8 473.3,-119.3 473.3,-126.3"/>
</g>
<!-- UserStatsComponent -->
<g id="node6" class="node">
<title>UserStatsComponent</title>
<polygon fill="#ffffb3" stroke="black" points="310.48,-84.8 175.52,-84.8 175.52,-48.8 310.48,-48.8 310.48,-84.8"/>
<text text-anchor="middle" x="243" y="-62.6" font-family="Times,serif" font-size="14.00">UserStatsComponent</text>
</g>
<!-- UserStatsComponent&#45;&gt;AppModule -->
<g id="edge6" class="edge">
<title>UserStatsComponent&#45;&gt;AppModule</title>
<path fill="none" stroke="black" d="M243,-84.91C243,-104.14 243,-131.8 243,-131.8 243,-131.8 473.09,-131.8 473.09,-131.8"/>
<polygon fill="black" stroke="black" points="473.09,-135.3 483.09,-131.8 473.09,-128.3 473.09,-135.3"/>
</g>
<!-- AppComponent  -->
<g id="node9" class="node">
<title>AppComponent </title>
<polygon fill="#80b1d3" stroke="black" points="579.44,-214.8 470.56,-214.8 470.56,-178.8 579.44,-178.8 579.44,-214.8"/>
<text text-anchor="middle" x="525" y="-192.6" font-family="Times,serif" font-size="14.00">AppComponent </text>
</g>
<!-- AppModule&#45;&gt;AppComponent  -->
<g id="edge8" class="edge">
<title>AppModule&#45;&gt;AppComponent </title>
<path fill="none" stroke="black" stroke-dasharray="1,5" d="M525,-149.91C525,-149.91 525,-168.79 525,-168.79"/>
<polygon fill="black" stroke="black" points="521.5,-168.79 525,-178.79 528.5,-168.79 521.5,-168.79"/>
</g>
<!-- AppRoutingModule -->
<g id="node8" class="node">
<title>AppRoutingModule</title>
<polygon fill="#8dd3c7" stroke="black" points="152.27,-84.8 149.27,-88.8 128.27,-88.8 125.27,-84.8 23.73,-84.8 23.73,-48.8 152.27,-48.8 152.27,-84.8"/>
<text text-anchor="middle" x="88" y="-62.6" font-family="Times,serif" font-size="14.00">AppRoutingModule</text>
</g>
<!-- AppRoutingModule&#45;&gt;AppModule -->
<g id="edge7" class="edge">
<title>AppRoutingModule&#45;&gt;AppModule</title>
<path fill="none" stroke="black" d="M88,-85.09C88,-107.01 88,-140.8 88,-140.8 88,-140.8 473.1,-140.8 473.1,-140.8"/>
<polygon fill="black" stroke="black" points="473.1,-144.3 483.1,-140.8 473.1,-137.3 473.1,-144.3"/>
</g>
</g>
</svg>
