<?xml version="1.0" encoding="UTF-8" standalone="no"?>
<!DOCTYPE svg PUBLIC "-//W3C//DTD SVG 1.1//EN"
 "http://www.w3.org/Graphics/SVG/1.1/DTD/svg11.dtd">
<!-- Generated by graphviz version 2.47.3 (20210619.1520)
 -->
<!-- Title: dependencies Pages: 1 -->
<svg width="1044pt" height="247pt"
 viewBox="0.00 0.00 1044.00 246.80" xmlns="http://www.w3.org/2000/svg" xmlns:xlink="http://www.w3.org/1999/xlink">
<g id="graph0" class="graph" transform="scale(1 1) rotate(0) translate(4 242.8)">
<title>dependencies</title>
<polygon fill="white" stroke="transparent" points="-4,4 -4,-242.8 1040,-242.8 1040,4 -4,4"/>
<text text-anchor="middle" x="518" y="-8.2" font-family="sans-serif" font-size="14.00">dependencies</text>
<g id="clust1" class="cluster">
<title>cluster_AppModule</title>
<polygon fill="none" stroke="black" stroke-dasharray="1,5" points="8,-32.8 8,-230.8 1028,-230.8 1028,-32.8 8,-32.8"/>
</g>
<g id="clust11" class="cluster">
<title>cluster_AppModule_bootstrap</title>
<polygon fill="none" stroke="black" points="453,-170.8 453,-222.8 577,-222.8 577,-170.8 453,-170.8"/>
</g>
<g id="clust9" class="cluster">
<title>cluster_AppModule_imports</title>
<polygon fill="none" stroke="black" points="876,-40.8 876,-92.8 1020,-92.8 1020,-40.8 876,-40.8"/>
</g>
<g id="clust2" class="cluster">
<title>cluster_AppModule_declarations</title>
<polygon fill="none" stroke="black" points="16,-40.8 16,-92.8 868,-92.8 868,-40.8 16,-40.8"/>
</g>
<!-- AppComponent -->
<g id="node1" class="node">
<title>AppComponent</title>
<polygon fill="#ffffb3" stroke="black" points="859.94,-84.8 754.06,-84.8 754.06,-48.8 859.94,-48.8 859.94,-84.8"/>
<text text-anchor="middle" x="807" y="-62.6" font-family="Times,serif" font-size="14.00">AppComponent</text>
</g>
<!-- AppModule -->
<g id="node7" class="node">
<title>AppModule</title>
<polygon fill="#8dd3c7" stroke="black" points="556.66,-149.8 553.66,-153.8 532.66,-153.8 529.66,-149.8 473.34,-149.8 473.34,-113.8 556.66,-113.8 556.66,-149.8"/>
<text text-anchor="middle" x="515" y="-127.6" font-family="Times,serif" font-size="14.00">AppModule</text>
</g>
<!-- AppComponent&#45;&gt;AppModule -->
<g id="edge1" class="edge">
<title>AppComponent&#45;&gt;AppModule</title>
<path fill="none" stroke="black" d="M807,-84.91C807,-104.14 807,-131.8 807,-131.8 807,-131.8 566.84,-131.8 566.84,-131.8"/>
<polygon fill="black" stroke="black" points="566.84,-128.3 556.84,-131.8 566.84,-135.3 566.84,-128.3"/>
</g>
<!-- DashboardComponent -->
<g id="node2" class="node">
<title>DashboardComponent</title>
<polygon fill="#ffffb3" stroke="black" points="735.97,-84.8 594.03,-84.8 594.03,-48.8 735.97,-48.8 735.97,-84.8"/>
<text text-anchor="middle" x="665" y="-62.6" font-family="Times,serif" font-size="14.00">DashboardComponent</text>
</g>
<!-- DashboardComponent&#45;&gt;AppModule -->
<g id="edge2" class="edge">
<title>DashboardComponent&#45;&gt;AppModule</title>
<path fill="none" stroke="black" d="M665,-84.83C665,-101.2 665,-122.8 665,-122.8 665,-122.8 566.78,-122.8 566.78,-122.8"/>
<polygon fill="black" stroke="black" points="566.78,-119.3 556.78,-122.8 566.78,-126.3 566.78,-119.3"/>
</g>
<!-- HeaderComponent -->
<g id="node3" class="node">
<title>HeaderComponent</title>
<polygon fill="#ffffb3" stroke="black" points="575.74,-84.8 454.26,-84.8 454.26,-48.8 575.74,-48.8 575.74,-84.8"/>
<text text-anchor="middle" x="515" y="-62.6" font-family="Times,serif" font-size="14.00">HeaderComponent</text>
</g>
<!-- HeaderComponent&#45;&gt;AppModule -->
<g id="edge3" class="edge">
<title>HeaderComponent&#45;&gt;AppModule</title>
<path fill="none" stroke="black" d="M515,-84.91C515,-84.91 515,-103.79 515,-103.79"/>
<polygon fill="black" stroke="black" points="511.5,-103.79 515,-113.79 518.5,-103.79 511.5,-103.79"/>
</g>
<!-- LessonsComponent -->
<g id="node4" class="node">
<title>LessonsComponent</title>
<polygon fill="#ffffb3" stroke="black" points="436.43,-84.8 309.57,-84.8 309.57,-48.8 436.43,-48.8 436.43,-84.8"/>
<text text-anchor="middle" x="373" y="-62.6" font-family="Times,serif" font-size="14.00">LessonsComponent</text>
</g>
<!-- LessonsComponent&#45;&gt;AppModule -->
<g id="edge4" class="edge">
<title>LessonsComponent&#45;&gt;AppModule</title>
<path fill="none" stroke="black" d="M373,-84.83C373,-101.2 373,-122.8 373,-122.8 373,-122.8 463.16,-122.8 463.16,-122.8"/>
<polygon fill="black" stroke="black" points="463.16,-126.3 473.16,-122.8 463.16,-119.3 463.16,-126.3"/>
</g>
<!-- LoginComponent -->
<g id="node5" class="node">
<title>LoginComponent</title>
<polygon fill="#ffffb3" stroke="black" points="291.28,-84.8 176.72,-84.8 176.72,-48.8 291.28,-48.8 291.28,-84.8"/>
<text text-anchor="middle" x="234" y="-62.6" font-family="Times,serif" font-size="14.00">LoginComponent</text>
</g>
<!-- LoginComponent&#45;&gt;AppModule -->
<g id="edge5" class="edge">
<title>LoginComponent&#45;&gt;AppModule</title>
<path fill="none" stroke="black" d="M234,-84.91C234,-104.14 234,-131.8 234,-131.8 234,-131.8 463.23,-131.8 463.23,-131.8"/>
<polygon fill="black" stroke="black" points="463.23,-135.3 473.23,-131.8 463.23,-128.3 463.23,-135.3"/>
</g>
<!-- UserStatsComponent -->
<g id="node6" class="node">
<title>UserStatsComponent</title>
<polygon fill="#ffffb3" stroke="black" points="158.48,-84.8 23.52,-84.8 23.52,-48.8 158.48,-48.8 158.48,-84.8"/>
<text text-anchor="middle" x="91" y="-62.6" font-family="Times,serif" font-size="14.00">UserStatsComponent</text>
</g>
<!-- UserStatsComponent&#45;&gt;AppModule -->
<g id="edge6" class="edge">
<title>UserStatsComponent&#45;&gt;AppModule</title>
<path fill="none" stroke="black" d="M91,-85.09C91,-107.01 91,-140.8 91,-140.8 91,-140.8 463.18,-140.8 463.18,-140.8"/>
<polygon fill="black" stroke="black" points="463.18,-144.3 473.18,-140.8 463.18,-137.3 463.18,-144.3"/>
</g>
<!-- AppComponent  -->
<g id="node9" class="node">
<title>AppComponent </title>
<polygon fill="#80b1d3" stroke="black" points="569.44,-214.8 460.56,-214.8 460.56,-178.8 569.44,-178.8 569.44,-214.8"/>
<text text-anchor="middle" x="515" y="-192.6" font-family="Times,serif" font-size="14.00">AppComponent </text>
</g>
<!-- AppModule&#45;&gt;AppComponent  -->
<g id="edge8" class="edge">
<title>AppModule&#45;&gt;AppComponent </title>
<path fill="none" stroke="black" stroke-dasharray="1,5" d="M515,-149.91C515,-149.91 515,-168.79 515,-168.79"/>
<polygon fill="black" stroke="black" points="511.5,-168.79 515,-178.79 518.5,-168.79 511.5,-168.79"/>
</g>
<!-- AppRoutingModule -->
<g id="node8" class="node">
<title>AppRoutingModule</title>
<polygon fill="#8dd3c7" stroke="black" points="1012.27,-84.8 1009.27,-88.8 988.27,-88.8 985.27,-84.8 883.73,-84.8 883.73,-48.8 1012.27,-48.8 1012.27,-84.8"/>
<text text-anchor="middle" x="948" y="-62.6" font-family="Times,serif" font-size="14.00">AppRoutingModule</text>
</g>
<!-- AppRoutingModule&#45;&gt;AppModule -->
<g id="edge7" class="edge">
<title>AppRoutingModule&#45;&gt;AppModule</title>
<path fill="none" stroke="black" d="M948,-85.09C948,-107.01 948,-140.8 948,-140.8 948,-140.8 566.91,-140.8 566.91,-140.8"/>
<polygon fill="black" stroke="black" points="566.91,-137.3 556.91,-140.8 566.91,-144.3 566.91,-137.3"/>
</g>
</g>
</svg>
